# xmcd CD Database Entry
#
# Track frame offsets:
# 182
# 12137
# 31140
# 47447
# 63660
# 77197
# 87872
# 116727
# 124612
# 145287
#
# Disc length: 2096 seconds
#
# Revision: 1
# Processed by: cddbd v1.4b41PL1 Copyright (c) Steve Scherf et al.
# Submitted via: tcd 2.0b
#
DISCID=7c082e0a
DTITLE=B. B. King - Live at the Regal
DYEAR=1900
DGENRE=
TTITLE0=Every Day I Have The Blues
TTITLE1=Sweet Little Angel
TTITLE2=It's My Own Fault
TTITLE3=How Blue Can You Get
TTITLE4=Please Love Me
TTITLE5=You Upset Me Baby
TTITLE6=Worry, Worry
TTITLE7=Woke Up This Mornin'
TTITLE8=You Done Lost Your Good Thing Now
TTITLE9=Help The Poor
EXTD=
EXTT0=
EXTT1=
EXTT2=
EXTT3=
EXTT4=
EXTT5=
EXTT6=
EXTT7=
EXTT8=
EXTT9=
PLAYORDER=
